# xmcd
#
# Track frame offsets:
#       150
#       18705
#       43625
#       63092
#       77882
#       102515
#       122322
#       142597
#       159259
#       176852
#       189460
#
# Disc length: 2813 seconds
#
# Revision: 0
# Processed by: cddbd v1.5.1PL0 Copyright (c) Steve Scherf et al.
# Submitted via: CD-DA_X-Tractor v0.24
#
DISCID=860afb0b
DTITLE=Wild West Picture Show - Natures Fundamental Embrace
DYEAR=1900
DGENRE=
TTITLE0=We Can Get By
TTITLE1=Frontier Justice
TTITLE2=Water
TTITLE3=Blue Desire
TTITLE4=Hor' Dervish
TTITLE5=Go On With Your Life
TTITLE6=Same Old Town
TTITLE7=Not For You
TTITLE8=Wasted Land
TTITLE9=Treat Her Right
TTITLE10=Deceiver
EXTD=
EXTT0=
EXTT1=
EXTT2=
EXTT3=
EXTT4=
EXTT5=
EXTT6=
EXTT7=
EXTT8=
EXTT9=
EXTT10=
PLAYORDER=
